<?xml version="1.0"?>
<svg xmlns="http://www.w3.org/2000/svg" height="512px" viewBox="0 0 512 512" width="512px"><path d="m509.070312 367.226562c-1.859374-1.867187-4.441406-2.929687-7.070312-2.929687s-5.210938 1.0625-7.070312 2.929687c-1.859376 1.863282-2.929688 4.441407-2.929688 7.070313 0 2.632813 1.070312 5.203125 2.929688 7.070313 1.859374 1.859374 4.441406 2.929687 7.070312 2.929687s5.210938-1.070313 7.070312-2.929687c1.859376-1.867188 2.929688-4.4375 2.929688-7.070313 0-2.628906-1.070312-5.207031-2.929688-7.070313zm0 0" fill="#FFFFFF"/><path d="m457 364.296875h-95.460938c-16.902343 0-33.34375-3.394531-48.863281-10.097656-14.898437-6.429688-30.707031-10.195313-46.675781-11.316407v-11.707031c7.3125-8.105469 15.40625-15.40625 24.136719-21.816406h52.808593c44.257813 0 80.269532-36.011719 80.269532-80.269531 0-5.523438-4.480469-10-10-10h-55.742188c-42.417968 0-77.230468 33.078125-80.0625 74.789062-3.925781 2.921875-7.722656 6.023438-11.410156 9.257813v-80.191407c6.746094-7.453124 14.195312-14.179687 22.230469-20.097656h49.195312c41.757813 0 75.734375-33.976562 75.734375-75.734375 0-5.523437-4.480468-10-10-10h-52.148437c-39.917969 0-72.699219 31.050781-75.515625 70.265625-3.253906 2.429688-6.417969 4.988282-9.496094 7.648438v-54.039063c22.453125-16.746093 35.699219-41.832031 35.699219-68.085937 0-27.957032-15.019531-54.589844-40.179688-71.242188-3.347656-2.214844-7.691406-2.214844-11.039062 0-25.160157 16.648438-40.183594 43.285156-40.183594 71.242188 0 26.253906 13.25 51.339844 35.703125 68.085937v54.039063c-3.078125-2.660156-6.242188-5.21875-9.5-7.648438-2.8125-39.214844-35.59375-70.265625-75.515625-70.265625h-52.144531c-5.523438 0-10 4.476563-10 10 0 41.761719 33.976562 75.734375 75.734375 75.734375h49.195312c8.03125 5.917969 15.480469 12.644532 22.226563 20.097656v80.191407c-3.683594-3.234375-7.480469-6.335938-11.40625-9.257813-2.832032-41.710937-37.648438-74.789062-80.0625-74.789062h-55.738282c-5.523437 0-10 4.476562-10 10 0 44.257812 36.007813 80.269531 80.269532 80.269531h52.808594c8.726562 6.410156 16.820312 13.710937 24.132812 21.816406v11.691407c-15.972656 1.09375-31.789062 4.839843-46.703125 11.25l-.375.160156c-15.46875 6.648437-31.851563 10.019531-48.6875 10.019531h-140.234375c-5.523438 0-10 4.476563-10 10s4.476562 10 10 10h140.234375c19.566406 0 38.605469-3.917969 56.589844-11.648437l.375-.160157c12.398437-5.328125 25.527343-8.515625 38.800781-9.574219v5.902344l-41.878906 26.714844c-4.65625 2.972656-6.019532 9.152344-3.050782 13.8125 1.90625 2.988281 5.136719 4.621094 8.4375 4.621094 1.839844 0 3.703126-.507813 5.371094-1.570313l31.121094-19.855469v27.335938c-6.753906 6.648438-14.136719 12.527344-22.023438 17.578125l-28.503906-12.335937c-5.066406-2.1875-10.957031.136718-13.148437 5.207031-2.195313 5.070312.136719 10.957031 5.203125 13.148437l13.40625 5.800782c-6.53125 2.59375-13.28125 4.703124-20.21875 6.273437l-2.921875.660156c-5.386719 1.222657-8.765625 6.574219-7.546875 11.960938 1.050781 4.644531 5.175781 7.796875 9.746094 7.796875.730468 0 1.472656-.082032 2.214843-.25l2.921875-.660156c4.886719-1.105469 9.6875-2.460938 14.40625-4.015626l-2.683594 10.214844c-1.40625 5.339844 1.785157 10.808594 7.128907 12.214844.851562.222656 1.707031.332031 2.546875.332031 4.433594 0 8.484375-2.972656 9.664062-7.460937l6.597656-25.085938c8.152344-4.246094 15.914063-9.214844 23.210938-14.855468v55.601562c0 5.523438 4.476562 10 10 10s10-4.476562 10-10v-74.976562c9.207031 8.136718 18.851562 15.703124 28.90625 22.675781l10.910156 31.003906c1.449219 4.113281 5.308594 6.683594 9.433594 6.683594 1.101562 0 2.222656-.183594 3.320312-.570313 5.207032-1.832031 7.945313-7.542968 6.113282-12.753906l-2.648438-7.523438c7.582032 4.183594 15.347656 8.078126 23.296875 11.644532 1.328125.597656 2.71875.882812 4.089844.882812 3.816406 0 7.464844-2.199218 9.128906-5.910156 2.261719-5.039062.007813-10.957031-5.03125-13.21875-15.542969-6.976562-30.355469-15.234375-44.347656-24.699219-.25-.183593-.511719-.355469-.777344-.515625-1.304687-.886718-2.589843-1.796875-3.878906-2.703125h25.984375c5.523438 0 10-4.480469 10-10 0-5.523437-4.476562-10-10-10h-50.8125c-.148438 0-.292969.015625-.441406.019531-3.734375-3.300781-7.40625-6.695312-10.984375-10.195312l-2.261719-2.210938v-19.117187l8.257812 10.109375c1.976563 2.417969 4.851563 3.671875 7.75 3.671875 2.222657 0 4.460938-.738281 6.320313-2.253906 4.277344-3.496094 4.910156-9.792969 1.417969-14.070313l-10.867188-13.304687c8.835938 1.667969 17.519532 4.292969 25.875 7.898437 18.035156 7.785156 37.144532 11.730469 56.789063 11.730469h95.460937c5.519532 0 10-4.476563 10-10 0-5.519531-4.480468-10-10.003906-10zm-99.527344-125.207031h44.910156c-4.777343 28.488281-29.613281 50.269531-59.4375 50.269531h-16.597656c3.53125-1.394531 7.117188-2.671875 10.753906-3.8125 5.269532-1.65625 8.199219-7.265625 6.546876-12.535156-1.65625-5.269531-7.265626-8.199219-12.535157-6.546875-10.558593 3.316406-20.738281 7.601562-30.441406 12.746094 8.304687-23.355469 30.628906-40.121094 56.800781-40.121094zm-6.460937-101.976563h41.25c-4.726563 25.976563-27.519531 45.734375-54.835938 45.734375h-12.03125c2.277344-.839844 4.570313-1.644531 6.890625-2.371094 5.269532-1.65625 8.199219-7.269531 6.546875-12.535156-1.652343-5.273437-7.261719-8.199218-12.535156-6.546875-9.414063 2.953125-18.507813 6.722657-27.207031 11.222657 8.113281-20.757813 28.324218-35.503907 51.921875-35.503907zm-176.4375 45.734375c-27.316407 0-50.109375-19.757812-54.835938-45.734375h41.25c23.597657 0 43.808594 14.746094 51.921875 35.503907-8.695312-4.5-17.792968-8.269532-27.207031-11.222657-5.269531-1.652343-10.882813 1.277344-12.535156 6.546875-1.652344 5.269532 1.277343 10.882813 6.546875 12.535156 2.320312.730469 4.613281 1.53125 6.890625 2.371094zm-5.515625 106.511719c-29.828125 0-54.664063-21.78125-59.441406-50.269531h44.914062c26.167969 0 48.492188 16.765625 56.800781 40.121094-9.703125-5.140626-19.882812-9.429688-30.441406-12.746094-5.273437-1.652344-10.882813 1.277344-12.535156 6.546875-1.65625 5.269531 1.273437 10.878906 6.542969 12.535156 3.640624 1.140625 7.222656 2.417969 10.757812 3.8125zm61.242187-216.457031c0-19.460938 9.28125-37.570313 25.699219-50.566406 16.417969 12.996093 25.699219 31.105468 25.699219 50.566406 0 15.058594-5.578125 29.292968-15.699219 40.992187v-15.402343c0-5.523438-4.476562-10-10-10s-10 4.476562-10 10v15.402343c-10.121094-11.699219-15.699219-25.933593-15.699219-40.992187zm0 0" fill="#FFFFFF"/></svg>
